<svg width="48" height="49" viewBox="0 0 48 49" fill="none" xmlns="http://www.w3.org/2000/svg">
<mask id="mask0_1_17" style="mask-type:alpha" maskUnits="userSpaceOnUse" x="0" y="0" width="48" height="49">
<circle cx="24" cy="24.0401" r="24" fill="#D9D9D9"/>
</mask>
<g mask="url(#mask0_1_17)">
<circle cx="24" cy="25.1838" r="29.0486" fill="#405AB9"/>
<circle cx="9.77002" cy="7.83679" r="4.125" fill="white"/>
<path d="M12.649 14.0521C12.0441 13.6141 12.5135 12.6976 12.9046 12.2978C13.0453 12.1231 13.7783 11.3168 14.9454 10.6015C16.4636 9.6709 17.6256 11.2887 21.4166 17.9173C22.9618 20.6193 35.2517 36.2593 30.7448 48.5747C26.2379 60.89 13.2026 46.4525 12.0083 44.9535C10.7567 43.3826 12.375 42.6194 13.8766 42.0948C15.7207 41.4506 14.2142 43.1303 16.0375 45.8314C17.8607 48.5325 25.6264 52.224 27.7648 49.5904C29.4755 47.4836 30.0689 46.3429 30.1529 42.6027C30.237 38.8625 27.8229 29.9821 21.8524 23.1251C15.8819 16.2682 13.4052 14.5996 12.649 14.0521Z" fill="white"/>
<path d="M29.1724 -2.06708C30.2261 -4.22982 23.3282 -2.8119 16.0375 -0.574079C16.3747 7.30906 26.7247 25.275 31.8197 33.752C35.8956 40.5335 41.5812 46.4594 43.9146 48.5747L52.7993 27.2446L51.5231 18.6845C51.1414 18.4416 49.3262 18.1015 45.1199 18.6845C39.8619 19.4134 37.4933 22.6931 36.348 25.5563C34.5487 30.0545 36.6382 34.2677 37.1214 35.7695C37.5079 36.9709 38.3794 37.0885 38.7668 36.9971C39.2325 36.8708 40.0492 36.318 39.5895 35.1166C39.0149 33.6148 39.213 32.7353 39.3306 31.4685C39.4246 30.4552 40.6671 28.7598 41.3038 28.1932C44.8594 24.6719 48.6719 26.3058 49.5528 27.5693L43.2448 44.9535C42.9213 44.8198 41.2883 43.6314 38.1152 39.3535C32.5515 31.8526 30.4572 28.4618 27.3015 16.9635C24.6547 7.3198 27.8554 0.636347 29.1724 -2.06708Z" fill="white"/>
</g>
</svg>
