<svg width="64" height="65" viewBox="0 0 64 65" fill="none" xmlns="http://www.w3.org/2000/svg">
<mask id="mask0_1_24" style="mask-type:alpha" maskUnits="userSpaceOnUse" x="0" y="0" width="64" height="65">
<circle cx="32" cy="32.0401" r="32" fill="#D9D9D9"/>
</mask>
<g mask="url(#mask0_1_24)">
<circle cx="32" cy="33.5652" r="38.7314" fill="#405AB9"/>
<circle cx="13.0266" cy="10.4358" r="5.5" fill="white"/>
<path d="M16.8654 18.7227C16.0588 18.1387 16.6848 16.9168 17.2062 16.3838C17.3939 16.1507 18.3711 15.0757 19.9273 14.1219C21.9515 12.8812 23.5009 15.0382 28.5555 23.8764C30.6159 27.479 47.0023 48.3324 40.9931 64.7528C34.9839 81.1733 17.6035 61.9234 16.0111 59.9247C14.3423 57.8301 16.5001 56.8125 18.5022 56.1131C20.961 55.2541 18.9524 57.4937 21.3834 61.0952C23.8144 64.6966 34.1687 69.6187 37.0199 66.1072C39.3008 63.2981 40.0919 61.7772 40.204 56.7902C40.3161 51.8033 37.0973 39.9627 29.1367 30.8201C21.176 21.6775 17.8737 19.4527 16.8654 18.7227Z" fill="white"/>
<path d="M38.8967 -2.76947C40.3015 -5.65313 31.1044 -3.76257 21.3834 -0.778806C21.833 9.73205 35.633 33.6866 42.4263 44.9893C47.8609 54.0314 55.4417 61.9325 58.5528 64.7528L70.3992 36.3128L68.6976 24.8994C68.1886 24.5754 65.7684 24.1219 60.1599 24.8994C53.1493 25.8711 49.9911 30.2441 48.464 34.0617C46.065 40.0594 48.851 45.677 49.4952 47.6793C50.0106 49.2812 51.1726 49.4379 51.6891 49.316C52.3101 49.1477 53.3989 48.4106 52.7861 46.8087C52.0199 44.8064 52.2841 43.6336 52.4409 41.9447C52.5662 40.5935 54.2229 38.333 55.0719 37.5775C59.8126 32.8824 64.896 35.061 66.0704 36.7457L57.6598 59.9247C57.2285 59.7464 55.0511 58.1618 50.8203 52.4579C43.4021 42.4567 40.6097 37.9357 36.402 22.6047C32.873 9.74637 37.1406 0.835095 38.8967 -2.76947Z" fill="white"/>
</g>
</svg>
