<svg width="32" height="33" viewBox="0 0 32 33" fill="none" xmlns="http://www.w3.org/2000/svg">
<mask id="mask0_1_11" style="mask-type:alpha" maskUnits="userSpaceOnUse" x="0" y="0" width="32" height="33">
<circle cx="16" cy="16.0401" r="16" fill="#D9D9D9"/>
</mask>
<g mask="url(#mask0_1_11)">
<circle cx="16" cy="16.8026" r="19.3657" fill="#405AB9"/>
<circle cx="6.51343" cy="5.23792" r="2.75" fill="white"/>
<path d="M8.4326 9.38141C8.0293 9.08941 8.34226 8.47845 8.603 8.21193C8.69681 8.09542 9.18545 7.55792 9.96351 7.08101C10.9756 6.46063 11.7503 7.53917 14.2776 11.9582C15.3078 13.7595 23.501 24.1862 20.4964 32.3965C17.4918 40.6067 8.80164 30.9817 8.00545 29.9824C7.17104 28.9351 8.24994 28.4263 9.25097 28.0766C10.4804 27.6471 9.47606 28.7669 10.6916 30.5676C11.9071 32.3684 17.0842 34.8294 18.5098 33.0737C19.6503 31.6691 20.0458 30.9086 20.1019 28.4152C20.1579 25.9217 18.5485 20.0014 14.5682 15.4301C10.5879 10.8588 8.93674 9.7464 8.4326 9.38141Z" fill="white"/>
<path d="M19.4482 -1.36469C20.1506 -2.80651 15.5521 -1.86123 10.6916 -0.369353C10.9164 4.88608 17.8164 16.8634 21.213 22.5147C23.9303 27.0357 27.7207 30.9863 29.2763 32.3965L35.1995 18.1764L34.3487 12.4697C34.0942 12.3078 32.8841 12.081 30.0798 12.4697C26.5745 12.9556 24.9954 15.1421 24.2319 17.0509C23.0324 20.0497 24.4254 22.8585 24.7475 23.8597C25.0052 24.6607 25.5862 24.739 25.8444 24.6781C26.1549 24.5939 26.6994 24.2254 26.3929 23.4244C26.0098 22.4232 26.142 21.8369 26.2203 20.9924C26.283 20.3168 27.1113 19.1866 27.5358 18.8088C29.9062 16.4613 32.4479 17.5506 33.0351 18.3929L28.8298 29.9824C28.6141 29.8932 27.5254 29.101 25.41 26.249C21.7009 21.2484 20.3047 18.9879 18.2009 11.3224C16.4364 4.89323 18.5702 0.437598 19.4482 -1.36469Z" fill="white"/>
</g>
</svg>
